<?xml version="1.0" encoding="iso-8859-1"?>
<!-- Generator: Adobe Illustrator 19.0.0, SVG Export Plug-In . SVG Version: 6.00 Build 0)  -->
<svg xmlns="http://www.w3.org/2000/svg" xmlns:xlink="http://www.w3.org/1999/xlink" version="1.1" id="Layer_1" x="0px" y="0px" viewBox="0 0 512 512" style="enable-background:new 0 0 512 512;" xml:space="preserve" width="512" height="512">
<g fill="#54BDB0">
	<polygon points="0,512 512,512 388.188,392 311.831,392 256,446.112 200.169,392 123.812,392  "/>
	<path d="M306.996,184c-1.098,25.061-4.928,48.378-11.074,66.818c-0.449,1.348-0.909,2.641-1.372,3.909   c28.286-12.77,49.161-39.142,54.248-70.727H306.996z"/>
	<path d="M256,262.66c2.381-1.838,7.902-8.83,12.933-26.044c4.324-14.798,7.092-33.089,8.035-52.616h-41.935   c0.943,19.527,3.711,37.818,8.035,52.615C248.098,253.83,253.62,260.822,256,262.66z"/>
	<path d="M276.967,154c-0.943-19.527-3.711-37.818-8.035-52.616C263.902,84.17,258.381,77.178,256,75.34   c-2.38,1.838-7.902,8.83-12.933,26.045c-4.324,14.798-7.092,33.089-8.035,52.615H276.967z"/>
	<path d="M216.078,250.818c-6.146-18.441-9.976-41.757-11.074-66.818h-41.802c5.087,31.585,25.962,57.957,54.248,70.727   C216.987,253.46,216.528,252.167,216.078,250.818z"/>
	<path d="M295.922,87.182c6.146,18.441,9.976,41.757,11.074,66.818h41.802c-5.087-31.585-25.962-57.957-54.248-70.727   C295.013,84.54,295.472,85.833,295.922,87.182z"/>
	<path d="M205.004,154c1.098-25.061,4.928-48.378,11.074-66.818c0.449-1.348,0.909-2.641,1.372-3.908   c-28.286,12.77-49.161,39.142-54.248,70.727H205.004z"/>
	<path d="M256,404.334l117.577-113.958C406.738,258.245,425,215.14,425,169C425,75.813,349.187,0,256,0C162.813,0,87,75.813,87,169   c0,46.14,18.262,89.245,51.422,121.376L256,404.334z M132,169c0-68.374,55.626-124,124-124s124,55.626,124,124s-55.626,124-124,124   S132,237.374,132,169z"/>
</g>















</svg>
