<svg height="512pt" viewBox="0 -2 512 512" width="512pt" xmlns="http://www.w3.org/2000/svg">
<g fill="#54BDB0">
<path d="m311.210938 127.117188c0-28.128907-22.804688-50.933594-50.933594-50.933594s-50.933594 22.804687-50.933594 50.933594v45.449218h101.867188zm0 0"/><path d="m294.917969 34.648438c0-19.136719-15.507813-34.648438-34.640625-34.648438-19.132813 0-34.640625 15.511719-34.640625 34.648438 0 19.136718 15.507812 34.648437 34.640625 34.648437 19.132812 0 34.640625-15.511719 34.640625-34.648437zm0 0"/><path d="m260.277344 412.570312c-28.128906 0-50.933594 22.804688-50.933594 50.933594v45.449219h101.867188v-45.449219c0-28.132812-22.804688-50.933594-50.933594-50.933594zm0 0"/><path d="m294.917969 371.03125c0-19.136719-15.507813-34.648438-34.640625-34.648438-19.132813 0-34.640625 15.511719-34.640625 34.648438s15.507812 34.648438 34.640625 34.648438c19.132812 0 34.640625-15.511719 34.640625-34.648438zm0 0"/><path d="m461.066406 412.570312c-28.128906 0-50.933594 22.804688-50.933594 50.933594v45.449219h101.867188v-45.449219c0-28.132812-22.804688-50.933594-50.933594-50.933594zm0 0"/><path d="m495.707031 371.03125c0-19.136719-15.507812-34.648438-34.640625-34.648438-19.132812 0-34.640625 15.511719-34.640625 34.648438s15.507813 34.648438 34.640625 34.648438c19.132813 0 34.640625-15.511719 34.640625-34.648438zm0 0"/><path d="m50.933594 412.570312c-28.128906 0-50.933594 22.800782-50.933594 50.933594v45.449219h101.867188v-45.449219c0-28.132812-22.804688-50.933594-50.933594-50.933594zm0 0"/><path d="m85.574219 371.03125c0-19.136719-15.507813-34.648438-34.640625-34.648438-19.132813 0-34.640625 15.511719-34.640625 34.648438s15.507812 34.648438 34.640625 34.648438c19.132812 0 34.640625-15.511719 34.640625-34.648438zm0 0"/><path d="m55.210938 311.859375c9.125 0 16.515624-7.394531 16.515624-16.515625v-24.625h172.035157v18.746094c0 9.125 7.394531 16.515625 16.515625 16.515625s16.515625-7.394531 16.515625-16.515625v-18.746094h172.035156v24.625c0 9.121094 7.394531 16.515625 16.515625 16.515625s16.515625-7.394531 16.515625-16.515625v-41.140625c0-9.125-7.394531-16.515625-16.515625-16.515625h-188.550781v-8.300781c0-9.121094-7.394531-16.515625-16.515625-16.515625s-16.515625 7.394531-16.515625 16.515625v8.300781h-188.550781c-9.121094 0-16.515626 7.394531-16.515626 16.515625v41.140625c0 9.121094 7.394532 16.515625 16.515626 16.515625zm0 0"/>
</g>
</svg>