<?xml version="1.0" encoding="iso-8859-1"?>
<!-- Generator: Adobe Illustrator 19.0.0, SVG Export Plug-In . SVG Version: 6.00 Build 0)  -->
<svg xmlns="http://www.w3.org/2000/svg" xmlns:xlink="http://www.w3.org/1999/xlink" version="1.1" id="Layer_1" x="0px" y="0px" viewBox="0 0 512 512" style="enable-background:new 0 0 512 512;" xml:space="preserve" width="512" height="512">
<g fill="#54BDB0">
	<path d="M121.001,100c1.662,0,3.303-0.086,4.924-0.245C115.033,86.086,108.501,68.796,108.501,50s6.532-36.086,17.424-49.755   C124.304,0.086,122.663,0,121.001,0c-27.57,0-50,22.43-50,50S93.431,100,121.001,100z"/>
	<path d="M138.501,50c0,27.57,22.43,50,50,50c1.662,0,3.303-0.086,4.924-0.245C182.533,86.086,176.001,68.796,176.001,50   s6.532-36.086,17.424-49.755C191.804,0.086,190.163,0,188.501,0C160.931,0,138.501,22.43,138.501,50z"/>
	<path d="M206.001,50c0,27.57,22.43,50,50,50c1.661,0,3.303-0.086,4.923-0.245C250.032,86.086,243.5,68.796,243.5,50   s6.532-36.086,17.424-49.755C259.304,0.086,257.662,0,256.001,0C228.431,0,206.001,22.43,206.001,50z"/>
	<path d="M256,130c-28.948,0-52.5,23.551-52.5,52.5V287H241V182.5c0-19.927,7.103-38.226,18.908-52.5H256z"/>
	<rect x="68.5" y="467" width="37.5" height="45"/>
	<rect x="271" y="467" width="37.5" height="45"/>
	<rect x="1" y="317" width="37.5" height="120"/>
	<rect x="203.5" y="467" width="37.5" height="45"/>
	<path d="M458.5,130H406v105h-30V130h-52.5c-28.948,0-52.5,23.551-52.5,52.5V287h37.5V182.5h30V512H376V316.5h30V512h37.5V182.5h30   V317c0,10.339,8.411,18.75,18.75,18.75S511,327.339,511,317V182.5C511,153.551,487.448,130,458.5,130z"/>
	<path d="M1,287h37.5V182.5c0-19.927,7.103-38.226,18.908-52.5H53.5C24.552,130,1,153.551,1,182.5V287z"/>
	<rect x="203.5" y="317" width="37.5" height="120"/>
	<rect x="271" y="317" width="37.5" height="120"/>
	<path d="M173.5,287V182.5c0-19.927,7.103-38.226,18.908-52.5H188.5c-28.948,0-52.5,23.551-52.5,52.5V287H173.5z"/>
	<rect x="136" y="467" width="37.5" height="45"/>
	<rect x="136" y="317" width="37.5" height="120"/>
	<rect x="68.5" y="317" width="37.5" height="120"/>
	<path d="M106,182.5c0-19.927,7.103-38.226,18.908-52.5H121c-28.948,0-52.5,23.551-52.5,52.5V287H106V182.5z"/>
	<path d="M273.5,50c0,27.57,22.43,50,50,50c1.662,0,3.303-0.086,4.924-0.245C317.532,86.086,311,68.796,311,50   s6.532-36.086,17.424-49.755C326.803,0.086,325.162,0,323.5,0C295.93,0,273.5,22.43,273.5,50z"/>
	<path d="M341,50c0,27.57,22.43,50,50,50s50-22.43,50-50S418.57,0,391,0S341,22.43,341,50z"/>
</g>















</svg>
