<svg width="65" height="65" viewBox="0 0 65 65" fill="none" xmlns="http://www.w3.org/2000/svg">
<path d="M56.7125 29.7917C55.4667 18.498 46.5021 9.53337 35.2084 8.28754V2.70837H29.7917V8.28754C18.498 9.53337 9.53337 18.498 8.28754 29.7917H2.70837V35.2084H8.28754C9.53337 46.5021 18.498 55.4667 29.7917 56.7125V62.2917H35.2084V56.7125C46.5021 55.4667 55.4667 46.5021 56.7125 35.2084H62.2917V29.7917H56.7125ZM32.5 51.4584C22.0188 51.4584 13.5417 42.9813 13.5417 32.5C13.5417 22.0188 22.0188 13.5417 32.5 13.5417C42.9813 13.5417 51.4584 22.0188 51.4584 32.5C51.4584 42.9813 42.9813 51.4584 32.5 51.4584Z" fill="#FF83A1"/>
</svg>
