<?xml version="1.0" encoding="iso-8859-1"?>
<!-- Generator: Adobe Illustrator 19.0.0, SVG Export Plug-In . SVG Version: 6.00 Build 0)  -->
<svg xmlns="http://www.w3.org/2000/svg" xmlns:xlink="http://www.w3.org/1999/xlink" version="1.1" id="Layer_1" x="0px" y="0px" viewBox="0 0 512 512" style="enable-background:new 0 0 512 512;" xml:space="preserve" width="512" height="512">
<g fill="#54BDB0">
	<rect x="309.144" y="430" width="60" height="82"/>
	<rect x="309.144" y="250" width="60" height="30"/>
	<polygon points="221.25,310 221.25,400 448.25,400 493.25,355 448.25,310  "/>
	<polygon points="493.25,175 448.25,130 221.25,130 221.25,220 448.25,220  "/>
	<rect x="18.75" y="317" width="37.501" height="120"/>
	<path d="M153.749,130v105h-30V130H71.25c-28.948,0-52.5,23.551-52.5,52.5V287h37.5V182.5h30V512h37.5V316.5h30V512h37.5   c0-3.497,0-310.063-0.001-382H153.749z"/>
	<path d="M188.749,50c0-27.57-22.43-50-50-50s-50,22.43-50,50s22.43,50,50,50S188.749,77.57,188.749,50z"/>
</g>















</svg>
